<svg xmlns="http://www.w3.org/2000/svg" viewBox="0 0 24 24" shape-rendering="crispEdges">
  <g fill="#000000">
    <!-- Circle outline -->
    <rect x="10" y="4" width="2" height="2"/><rect x="12" y="4" width="2" height="2"/>
    <rect x="8" y="6" width="2" height="2"/><rect x="14" y="6" width="2" height="2"/>
    <rect x="6" y="8" width="2" height="2"/><rect x="16" y="8" width="2" height="2"/>
    <rect x="6" y="10" width="2" height="2"/><rect x="16" y="10" width="2" height="2"/>
    <rect x="6" y="12" width="2" height="2"/><rect x="16" y="12" width="2" height="2"/>
    <rect x="6" y="14" width="2" height="2"/><rect x="16" y="14" width="2" height="2"/>
    <rect x="8" y="16" width="2" height="2"/><rect x="14" y="16" width="2" height="2"/>
    <rect x="10" y="18" width="2" height="2"/><rect x="12" y="18" width="2" height="2"/>

    <!-- Check -->
    <rect x="9" y="12" width="2" height="2"/>
    <rect x="11" y="14" width="2" height="2"/>
    <rect x="13" y="12" width="2" height="2"/>
    <rect x="15" y="10" width="2" height="2"/>
  </g>
</svg>
