<svg xmlns="http://www.w3.org/2000/svg" viewBox="0 0 24 24" shape-rendering="crispEdges">
  <g fill="#000000">
    <!-- Back sheet -->
    <rect x="6" y="6" width="2" height="2"/><rect x="8" y="6" width="2" height="2"/><rect x="10" y="6" width="2" height="2"/><rect x="12" y="6" width="2" height="2"/>
    <rect x="6" y="8" width="2" height="2"/><rect x="12" y="8" width="2" height="2"/>
    <rect x="6" y="10" width="2" height="2"/><rect x="12" y="10" width="2" height="2"/>
    <rect x="6" y="12" width="2" height="2"/><rect x="12" y="12" width="2" height="2"/>

    <!-- Front sheet -->
    <rect x="10" y="10" width="2" height="2"/><rect x="12" y="10" width="2" height="2"/><rect x="14" y="10" width="2" height="2"/><rect x="16" y="10" width="2" height="2"/>
    <rect x="10" y="12" width="2" height="2"/><rect x="16" y="12" width="2" height="2"/>
    <rect x="10" y="14" width="2" height="2"/><rect x="16" y="14" width="2" height="2"/>
    <rect x="10" y="16" width="2" height="2"/><rect x="16" y="16" width="2" height="2"/>
    <rect x="10" y="18" width="2" height="2"/><rect x="12" y="18" width="2" height="2"/><rect x="14" y="18" width="2" height="2"/><rect x="16" y="18" width="2" height="2"/>
  </g>
</svg>
