<svg xmlns="http://www.w3.org/2000/svg" viewBox="0 0 24 24" shape-rendering="crispEdges">
  <g fill="#000000">
    <!-- Door -->
    <rect x="6" y="6" width="2" height="2"/><rect x="8" y="6" width="2" height="2"/><rect x="10" y="6" width="2" height="2"/>
    <rect x="6" y="8" width="2" height="2"/><rect x="10" y="8" width="2" height="2"/>
    <rect x="6" y="10" width="2" height="2"/><rect x="10" y="10" width="2" height="2"/>
    <rect x="6" y="12" width="2" height="2"/><rect x="10" y="12" width="2" height="2"/>
    <rect x="6" y="14" width="2" height="2"/><rect x="10" y="14" width="2" height="2"/>
    <rect x="6" y="16" width="2" height="2"/><rect x="8" y="16" width="2" height="2"/><rect x="10" y="16" width="2" height="2"/>
    <!-- Knob -->
    <rect x="9" y="12" width="1" height="1"/>

    <!-- Arrow out -->
    <rect x="12" y="12" width="2" height="2"/><rect x="14" y="12" width="2" height="2"/><rect x="16" y="12" width="2" height="2"/>
    <rect x="18" y="10" width="2" height="2"/><rect x="18" y="12" width="2" height="2"/><rect x="18" y="14" width="2" height="2"/>
    <rect x="20" y="12" width="2" height="2"/>
  </g>
</svg>
