<svg xmlns="http://www.w3.org/2000/svg" viewBox="0 0 24 24" shape-rendering="crispEdges">
  <g fill="#000000">
    <!-- Person -->
    <rect x="7" y="7" width="2" height="2"/><rect x="9" y="7" width="2" height="2"/>
    <rect x="5" y="9" width="2" height="2"/><rect x="11" y="9" width="2" height="2"/>
    <rect x="5" y="11" width="2" height="2"/><rect x="7" y="11" width="2" height="2"/><rect x="9" y="11" width="2" height="2"/><rect x="11" y="11" width="2" height="2"/>
    <rect x="5" y="15" width="2" height="2"/><rect x="7" y="15" width="2" height="2"/><rect x="9" y="15" width="2" height="2"/><rect x="11" y="15" width="2" height="2"/>

    <!-- Plus -->
    <rect x="16" y="10" width="2" height="2"/>
    <rect x="14" y="12" width="2" height="2"/><rect x="16" y="12" width="2" height="2"/><rect x="18" y="12" width="2" height="2"/>
    <rect x="16" y="14" width="2" height="2"/>
  </g>
</svg>
