<svg xmlns="http://www.w3.org/2000/svg" viewBox="0 0 24 24" shape-rendering="crispEdges">
  <g fill="#000000">
    <!-- Upper arrow (right) -->
    <rect x="6" y="10" width="2" height="2"/><rect x="8" y="10" width="2" height="2"/><rect x="10" y="10" width="2" height="2"/><rect x="12" y="10" width="2" height="2"/>
    <rect x="14" y="8" width="2" height="2"/><rect x="14" y="10" width="2" height="2"/><rect x="14" y="12" width="2" height="2"/>
    <rect x="16" y="10" width="2" height="2"/>

    <!-- Lower arrow (left) -->
    <rect x="18" y="14" width="2" height="2"/><rect x="16" y="14" width="2" height="2"/><rect x="14" y="14" width="2" height="2"/><rect x="12" y="14" width="2" height="2"/>
    <rect x="10" y="12" width="2" height="2"/><rect x="10" y="14" width="2" height="2"/><rect x="10" y="16" width="2" height="2"/>
    <rect x="8" y="14" width="2" height="2"/>
  </g>
</svg>
