<svg xmlns="http://www.w3.org/2000/svg" viewBox="0 0 24 24" shape-rendering="crispEdges">
  <g fill="#000000">
    <!-- Frame -->
    <rect x="2" y="2" width="2" height="2"/><rect x="4" y="2" width="2" height="2"/><rect x="6" y="2" width="2" height="2"/><rect x="8" y="2" width="2" height="2"/><rect x="10" y="2" width="2" height="2"/><rect x="12" y="2" width="2" height="2"/><rect x="14" y="2" width="2" height="2"/><rect x="16" y="2" width="2" height="2"/><rect x="18" y="2" width="2" height="2"/><rect x="20" y="2" width="2" height="2"/>
    <rect x="2" y="4" width="2" height="2"/><rect x="20" y="4" width="2" height="2"/>
    <rect x="2" y="6" width="2" height="2"/><rect x="20" y="6" width="2" height="2"/>
    <rect x="2" y="8" width="2" height="2"/><rect x="20" y="8" width="2" height="2"/>
    <rect x="2" y="10" width="2" height="2"/><rect x="20" y="10" width="2" height="2"/>
    <rect x="2" y="12" width="2" height="2"/><rect x="20" y="12" width="2" height="2"/>
    <rect x="2" y="14" width="2" height="2"/><rect x="20" y="14" width="2" height="2"/>
    <rect x="2" y="16" width="2" height="2"/><rect x="20" y="16" width="2" height="2"/>
    <rect x="2" y="18" width="2" height="2"/><rect x="20" y="18" width="2" height="2"/>
    <rect x="2" y="20" width="2" height="2"/><rect x="4" y="20" width="2" height="2"/><rect x="6" y="20" width="2" height="2"/><rect x="8" y="20" width="2" height="2"/><rect x="10" y="20" width="2" height="2"/><rect x="12" y="20" width="2" height="2"/><rect x="14" y="20" width="2" height="2"/><rect x="16" y="20" width="2" height="2"/><rect x="18" y="20" width="2" height="2"/><rect x="20" y="20" width="2" height="2"/>

    <!-- Small header pixels -->
    <rect x="6" y="6" width="2" height="2"/><rect x="8" y="6" width="2" height="2"/><rect x="10" y="6" width="2" height="2"/><rect x="12" y="6" width="2" height="2"/>

    <!-- Bars -->
    <rect x="6" y="14" width="2" height="2"/><rect x="6" y="16" width="2" height="2"/><rect x="6" y="18" width="2" height="2"/>
    <rect x="10" y="10" width="2" height="2"/><rect x="10" y="12" width="2" height="2"/><rect x="10" y="14" width="2" height="2"/><rect x="10" y="16" width="2" height="2"/><rect x="10" y="18" width="2" height="2"/>
    <rect x="14" y="12" width="2" height="2"/><rect x="14" y="14" width="2" height="2"/><rect x="14" y="16" width="2" height="2"/><rect x="14" y="18" width="2" height="2"/>
  </g>
</svg>
