<svg xmlns="http://www.w3.org/2000/svg" viewBox="0 0 24 24" shape-rendering="crispEdges">
  <g fill="#000000">
    <!-- Frame -->
    <rect x="4" y="4" width="2" height="2"/><rect x="6" y="4" width="2" height="2"/><rect x="8" y="4" width="2" height="2"/><rect x="10" y="4" width="2" height="2"/><rect x="12" y="4" width="2" height="2"/><rect x="14" y="4" width="2" height="2"/><rect x="16" y="4" width="2" height="2"/><rect x="18" y="4" width="2" height="2"/><rect x="20" y="4" width="2" height="2"/>
    <rect x="4" y="6" width="2" height="2"/><rect x="20" y="6" width="2" height="2"/>
    <rect x="4" y="8" width="2" height="2"/><rect x="20" y="8" width="2" height="2"/>
    <rect x="4" y="10" width="2" height="2"/><rect x="20" y="10" width="2" height="2"/>
    <rect x="4" y="12" width="2" height="2"/><rect x="20" y="12" width="2" height="2"/>
    <rect x="4" y="14" width="2" height="2"/><rect x="20" y="14" width="2" height="2"/>
    <rect x="4" y="16" width="2" height="2"/><rect x="20" y="16" width="2" height="2"/>
    <rect x="4" y="18" width="2" height="2"/><rect x="20" y="18" width="2" height="2"/>
    <rect x="4" y="20" width="2" height="2"/><rect x="6" y="20" width="2" height="2"/><rect x="8" y="20" width="2" height="2"/><rect x="10" y="20" width="2" height="2"/><rect x="12" y="20" width="2" height="2"/><rect x="14" y="20" width="2" height="2"/><rect x="16" y="20" width="2" height="2"/><rect x="18" y="20" width="2" height="2"/><rect x="20" y="20" width="2" height="2"/>

    <!-- Bullets -->
    <rect x="8" y="8" width="2" height="2"/>
    <rect x="8" y="12" width="2" height="2"/>
    <rect x="8" y="16" width="2" height="2"/>

    <!-- Lines -->
    <rect x="12" y="8" width="2" height="2"/><rect x="14" y="8" width="2" height="2"/><rect x="16" y="8" width="2" height="2"/>
    <rect x="12" y="12" width="2" height="2"/><rect x="14" y="12" width="2" height="2"/><rect x="16" y="12" width="2" height="2"/><rect x="18" y="12" width="2" height="2"/>
    <rect x="12" y="16" width="2" height="2"/><rect x="14" y="16" width="2" height="2"/><rect x="16" y="16" width="2" height="2"/>
  </g>
</svg>
