<svg width="18" height="18" viewBox="0 0 48 48" xmlns="http://www.w3.org/2000/svg">
  <path fill="#EA4335" d="M24 9.5c3.54 0 6.71 1.22 9.21 3.22l6.85-6.85C35.9 2.34 30.47 0 24 0 14.62 0 6.51 5.38 2.56 13.22l7.98 6.19C12.43 13.14 17.74 9.5 24 9.5z"/>
  <path fill="#4285F4" d="M46.98 24.55c0-1.57-.14-3.08-.4-4.55H24v8.62h12.92c-.56 3.02-2.26 5.58-4.8 7.3l7.73 5.99C44.35 37.73 46.98 31.73 46.98 24.55z"/>
  <path fill="#FBBC05" d="M10.54 28.59c-.48-1.45-.76-2.99-.76-4.59s.27-3.14.76-4.59l-7.98-6.19C.92 16.46 0 20.12 0 24c0 3.88.92 7.54 2.56 10.78l7.98-6.19z"/>
  <path fill="#34A853" d="M24 48c6.48 0 11.93-2.14 15.9-5.81l-7.73-5.99c-2.15 1.45-4.9 2.3-8.17 2.3-6.26 0-11.57-3.64-13.46-8.91l-7.98 6.19C6.51 42.62 14.62 48 24 48z"/>
  <path fill="none" d="M0 0h48v48H0z"/>
</svg>
