<svg width="110" height="110" viewBox="0 0 110 110" fill="none" xmlns="http://www.w3.org/2000/svg">
<g clip-path="url(#clip0_2_1105)">
<rect x="10" y="20" width="10" height="10" fill="#9B2C2C"/>
<rect x="20" y="10" width="10" height="10" fill="#9B2C2C"/>
<rect y="30" width="10" height="10" fill="#9B2C2C"/>
<rect y="40" width="10" height="10" fill="#9B2C2C"/>
<rect y="50" width="10" height="10" fill="#9B2C2C"/>
<rect y="60" width="10" height="10" fill="#9B2C2C"/>
<rect y="70" width="10" height="10" fill="#9B2C2C"/>
<rect x="10" y="80" width="10" height="10" fill="#9B2C2C"/>
<rect x="20" y="90" width="10" height="10" fill="#9B2C2C"/>
<rect x="30" y="100" width="10" height="10" fill="#9B2C2C"/>
<rect x="40" y="100" width="10" height="10" fill="#9B2C2C"/>
<rect x="50" y="100" width="10" height="10" fill="#9B2C2C"/>
<rect x="60" y="100" width="10" height="10" fill="#9B2C2C"/>
<rect x="70" y="100" width="10" height="10" fill="#9B2C2C"/>
<rect x="80" y="90" width="10" height="10" fill="#9B2C2C"/>
<rect x="90" y="80" width="10" height="10" fill="#9B2C2C"/>
<rect x="100" y="70" width="10" height="10" fill="#9B2C2C"/>
<rect x="100" y="60" width="10" height="10" fill="#9B2C2C"/>
<rect x="100" y="50" width="10" height="10" fill="#9B2C2C"/>
<rect x="100" y="40" width="10" height="10" fill="#9B2C2C"/>
<rect x="100" y="30" width="10" height="10" fill="#9B2C2C"/>
<rect x="90" y="20" width="10" height="10" fill="#9B2C2C"/>
<rect x="80" y="10" width="10" height="10" fill="#9B2C2C"/>
<rect x="70" width="10" height="10" fill="#9B2C2C"/>
<rect x="60" width="10" height="10" fill="#9B2C2C"/>
<rect x="50" width="10" height="10" fill="#9B2C2C"/>
<rect x="40" width="10" height="10" fill="#9B2C2C"/>
<rect x="30" width="10" height="10" fill="#9B2C2C"/>
<rect x="60" y="70" width="10" height="10" fill="#9B2C2C"/>
<rect x="50" y="30" width="10" height="10" fill="#9B2C2C"/>
<rect x="50" y="40" width="10" height="10" fill="#9B2C2C"/>
<rect x="50" y="50" width="10" height="10" fill="#9B2C2C"/>
<rect x="50" y="60" width="10" height="10" fill="#9B2C2C"/>
<rect x="50" y="70" width="10" height="10" fill="#9B2C2C"/>
<rect x="40" y="40" width="10" height="10" fill="#9B2C2C"/>
<rect x="40" y="70" width="10" height="10" fill="#9B2C2C"/>
<rect x="10" y="30" width="10" height="10" fill="#ED8936"/>
<rect x="20" y="30" width="10" height="10" fill="#ED8936"/>
<rect x="20" y="20" width="10" height="10" fill="#ED8936"/>
<rect x="10" y="40" width="10" height="10" fill="#ED8936"/>
<rect x="20" y="40" width="10" height="10" fill="#ED8936"/>
<rect x="10" y="50" width="10" height="10" fill="#ED8936"/>
<rect x="20" y="50" width="10" height="10" fill="#ED8936"/>
<rect x="10" y="60" width="10" height="10" fill="#ED8936"/>
<rect x="20" y="60" width="10" height="10" fill="#ED8936"/>
<rect x="10" y="70" width="10" height="10" fill="#ED8936"/>
<rect x="20" y="70" width="10" height="10" fill="#ED8936"/>
<rect x="90" y="70" width="10" height="10" fill="#ED8936"/>
<rect x="80" y="70" width="10" height="10" fill="#ED8936"/>
<rect x="90" y="60" width="10" height="10" fill="#ED8936"/>
<rect x="80" y="60" width="10" height="10" fill="#ED8936"/>
<rect x="90" y="50" width="10" height="10" fill="#ED8936"/>
<rect x="80" y="50" width="10" height="10" fill="#ED8936"/>
<rect x="90" y="40" width="10" height="10" fill="#ED8936"/>
<rect x="80" y="40" width="10" height="10" fill="#ED8936"/>
<rect x="90" y="30" width="10" height="10" fill="#ED8936"/>
<rect x="80" y="30" width="10" height="10" fill="#ED8936"/>
<rect x="70" y="10" width="10" height="10" fill="#ED8936"/>
<rect x="70" y="20" width="10" height="10" fill="#ED8936"/>
<rect x="80" y="20" width="10" height="10" fill="#ED8936"/>
<rect x="70" y="30" width="10" height="10" fill="#ED8936"/>
<rect x="70" y="50" width="10" height="10" fill="#ED8936"/>
<rect x="70" y="60" width="10" height="10" fill="#ED8936"/>
<rect x="60" y="10" width="10" height="10" fill="#ED8936"/>
<rect x="30" y="10" width="10" height="10" fill="#ED8936"/>
<rect x="30" y="40" width="10" height="10" fill="#ED8936"/>
<rect x="30" y="50" width="10" height="10" fill="#ED8936"/>
<rect x="70" y="80" width="10" height="10" fill="#ED8936"/>
<rect x="60" y="20" width="10" height="10" fill="#ED8936"/>
<rect x="60" y="30" width="10" height="10" fill="#ED8936"/>
<rect x="60" y="40" width="10" height="10" fill="#ED8936"/>
<rect x="60" y="50" width="10" height="10" fill="#ED8936"/>
<rect x="60" y="60" width="10" height="10" fill="#ED8936"/>
<rect x="60" y="80" width="10" height="10" fill="#ED8936"/>
<rect x="60" y="90" width="10" height="10" fill="#ED8936"/>
<rect x="50" y="10" width="10" height="10" fill="#ED8936"/>
<rect x="50" y="80" width="10" height="10" fill="#ED8936"/>
<rect x="50" y="90" width="10" height="10" fill="#ED8936"/>
<rect x="40" y="20" width="10" height="10" fill="#ED8936"/>
<rect x="40" y="30" width="10" height="10" fill="#ED8936"/>
<rect x="40" y="50" width="10" height="10" fill="#ED8936"/>
<rect x="40" y="60" width="10" height="10" fill="#ED8936"/>
<rect x="40" y="80" width="10" height="10" fill="#ED8936"/>
<rect x="40" y="90" width="10" height="10" fill="#ED8936"/>
<rect x="30" y="60" width="10" height="10" fill="#ED8936"/>
<rect x="30" y="70" width="10" height="10" fill="#ED8936"/>
<rect x="30" y="80" width="10" height="10" fill="#ED8936"/>
<rect x="50" y="20" width="10" height="10" fill="#ED8936"/>
<rect x="20" y="80" width="10" height="10" fill="#ED8936"/>
<rect x="70" y="40" width="10" height="10" fill="#ED8936"/>
<rect x="70" y="70" width="10" height="10" fill="#ED8936"/>
<rect x="80" y="80" width="10" height="10" fill="#ED8936"/>
<rect x="70" y="90" width="10" height="10" fill="#ED8936"/>
<rect x="40" y="10" width="10" height="10" fill="#ED8936"/>
<rect x="30" y="20" width="10" height="10" fill="#ED8936"/>
<rect x="30" y="30" width="10" height="10" fill="#ED8936"/>
<rect x="30" y="90" width="10" height="10" fill="#ED8936"/>
</g>
<defs>
<clipPath id="clip0_2_1105">
<rect width="110" height="110" fill="white"/>
</clipPath>
</defs>
</svg>
